<?xml version="1.0" encoding="UTF-8" standalone="no"?>
<!-- Created with Inkscape (http://www.inkscape.org/) -->

<svg
   version="1.1"
   id="svg1"
   width="1055.6"
   height="245.85333"
   viewBox="0 0 1055.6 245.85333"
   sodipodi:docname="logo.svg"
   inkscape:version="1.4.2 (ebf0e940, 2025-05-08)"
   inkscape:export-filename="logo.png"
   inkscape:export-xdpi="181.88708"
   inkscape:export-ydpi="181.88708"
   xmlns:inkscape="http://www.inkscape.org/namespaces/inkscape"
   xmlns:sodipodi="http://sodipodi.sourceforge.net/DTD/sodipodi-0.dtd"
   xmlns="http://www.w3.org/2000/svg"
   xmlns:svg="http://www.w3.org/2000/svg">
  <defs
     id="defs1" />
  <sodipodi:namedview
     id="namedview1"
     pagecolor="#ffffff"
     bordercolor="#000000"
     borderopacity="0.25"
     inkscape:showpageshadow="2"
     inkscape:pageopacity="0.0"
     inkscape:pagecheckerboard="0"
     inkscape:deskcolor="#d1d1d1"
     showgrid="false"
     inkscape:zoom="0.86294901"
     inkscape:cx="489.02078"
     inkscape:cy="166.29024"
     inkscape:window-width="1728"
     inkscape:window-height="1004"
     inkscape:window-x="0"
     inkscape:window-y="38"
     inkscape:window-maximized="1"
     inkscape:current-layer="group-R5">
    <inkscape:page
       x="0"
       y="0"
       inkscape:label="1"
       id="page1"
       width="1055.6"
       height="245.85333"
       margin="0"
       bleed="0" />
  </sodipodi:namedview>
  <g
     id="g1"
     inkscape:groupmode="layer"
     inkscape:label="1">
    <g
       id="group-R5"
       transform="translate(-0.66617046,-0.15373164)">
      <path
         id="path2"
         d="m 1625.98,893.551 c 0.21,0.586 0.27,1.195 0.6,1.75 2.78,4.781 8.9,6.398 13.66,3.629 l 9.57,-5.555 c 4.44,21.66 0.74,46.387 -10.99,69.895 -14.24,28.574 -38.06,52.1 -57.23,69.41 -53.1,47.93 -115.13,82.42 -162.13,104.46 0.08,-2.4 0.18,-4.79 0.14,-7.24 -0.32,-21.94 -5.22,-43.24 -10.2,-63.17 -23.39,-93.578 -56.29,-185.273 -97.77,-272.55 -8.73,-18.348 -18.13,-36.629 -27.29,-54.399 53.09,-15.351 107.96,-22.722 163.27,-21.84 34.14,0.571 61.23,4.289 85.26,11.688 26.74,8.23 49.61,21.461 66.68,38.351 -9.45,6.551 -18.33,13.668 -25.94,22.301 -15.78,17.91 -23.26,39.539 -20.51,59.344 2.39,17.195 13.09,31.953 27.07,39.438 -2.28,3.847 -1.77,8.898 1.55,12.195 3.91,3.902 10.25,3.887 14.14,-0.039 1.52,-1.524 3.2,-2.895 4.87,-4.281 2.17,-1.797 4.32,-3.602 6.29,-5.575 0.07,-0.074 0.11,-0.172 0.18,-0.25 5.34,1.684 10.9,2.641 16.44,2.657 0.8,0 1.56,-0.161 2.34,-0.219"
         style="fill:#71c2e2;fill-opacity:1;fill-rule:nonzero;stroke:none"
         transform="matrix(0.13333333,0,0,-0.13333333,0,245.85333)" />
      <path
         id="path3"
         d="m 1767.21,734.289 c 13.24,3.582 29.34,12.859 31.17,27.27 0.99,7.781 -2.67,16.961 -9.77,24.543 -7.26,7.769 -17.24,13.558 -26.88,19.168 l -131.52,76.367 c -4.22,2.449 -5.79,7.476 -4.23,11.914 -0.78,0.058 -1.54,0.219 -2.34,0.219 -5.54,-0.016 -11.1,-0.973 -16.44,-2.657 2.65,-2.836 3.46,-6.937 1.99,-10.558 -1.5,-3.711 -5.07,-6.164 -9.08,-6.242 -14.03,-0.266 -25.39,-14.403 -27.2,-27.438 -1.95,-14.023 3.77,-29.836 15.7,-43.375 11.18,-12.68 25.75,-21.918 42.24,-31.828 20.72,-12.481 42.92,-25.313 66.58,-33.141 25.13,-8.312 49.27,-9.793 69.78,-4.242"
         style="fill:#dbb28f;fill-opacity:1;fill-rule:nonzero;stroke:none"
         transform="matrix(0.13333333,0,0,-0.13333333,0,245.85333)" />
      <path
         id="path4"
         d="m 2553.1,1409.43 c -29.69,-0.45 -53.64,23.5 -51.46,52.8 2.27,30.7 20.69,47.74 51.17,49.01 28.23,1.17 52.88,-25.43 51.78,-55.99 -4.17,-27.35 -20.02,-45.35 -51.49,-45.82 z m -82.31,212.05 c -2.92,-1.73 -5.98,-3.25 -9.15,-4.55 -7.78,-3.18 -15.73,-4.89 -23.41,-6.54 -4.57,-0.98 -9.13,-1.96 -13.6,-3.27 -6.33,-1.86 -12.45,-4.68 -18.37,-8.03 -7.87,-5.73 -16.05,-11.13 -23.02,-17.93 -3.2,-3.13 -6.18,-6.45 -8.95,-9.91 -2.76,-3.51 -5.4,-7.16 -7.81,-11.03 -0.57,-0.92 -1.05,-1.92 -1.6,-2.85 -1.7,-2.89 -3.38,-5.78 -4.85,-8.8 -1.91,-3.92 -3.66,-7.95 -5.18,-12.11 -10.76,-29.38 -12.77,-64.99 -5.99,-105.83 7.58,-45.7 23.36,-82.16 46.9,-108.36 27.53,-30.66 67.93,-46.37 102.76,-39.98 18.65,3.4 37.24,12.77 55.27,27.85 51.75,43.34 75.23,119.01 57.13,184.03 -17.77,63.74 -75.04,115.56 -140.13,127.31"
         style="fill:#ffffff;fill-opacity:1;fill-rule:nonzero;stroke:none"
         transform="matrix(0.13333333,0,0,-0.13333333,0,245.85333)" />
      <path
         id="path5"
         d="m 1435.36,1151.73 c 1.9,-0.91 3.92,-1.96 5.86,-2.9 -1.17,1.23 -2.41,2.38 -3.56,3.64 -0.74,-0.3 -1.51,-0.53 -2.3,-0.74"
         style="fill:#71c2e2;fill-opacity:1;fill-rule:nonzero;stroke:none"
         transform="matrix(0.13333333,0,0,-0.13333333,0,245.85333)" />
      <path
         id="path6"
         d="m 1416.49,1160.92 c 0.03,-0.15 0.07,-0.29 0.1,-0.44 0.59,-0.26 1.26,-0.59 1.85,-0.85 -0.12,0.21 -0.3,0.38 -0.41,0.6 -0.54,0.17 -1.03,0.45 -1.54,0.69"
         style="fill:#71c2e2;fill-opacity:1;fill-rule:nonzero;stroke:none"
         transform="matrix(0.13333333,0,0,-0.13333333,0,245.85333)" />
      <path
         id="path7"
         d="m 1358.31,636.379 c 20.38,-3.129 41.06,-5.109 61.61,-5.82 4.47,-0.149 8.84,-0.161 13.23,-0.2 -24.21,2.731 -48.37,6.129 -72.67,7.629 -0.49,-0.738 -1.25,-1.269 -2.17,-1.609"
         style="fill:#71c2e2;fill-opacity:1;fill-rule:nonzero;stroke:none"
         transform="matrix(0.13333333,0,0,-0.13333333,0,245.85333)" />
      <path
         id="path8"
         d="m 2026.1,1292.35 c -114.54,0.7 -197.24,86.26 -196.66,203.43 0.61,119.08 87.54,205.24 206.88,205.24 h 1.03 c 57.7,-0.24 109.81,-21.02 146.74,-58.5 37.37,-37.93 57.6,-91.25 56.97,-150.14 -1.18,-110.58 -96.84,-200.04 -213.55,-200.03 z m -396.73,422.22 c -5.52,0.16 -9.87,4.75 -9.72,10.28 0.14,4.78 -1.71,9.76 -4.92,13.3 -3.22,3.55 -7.99,5.87 -12.76,6.21 -4.76,0.3 -9.4,-1.62 -11.04,-4.66 -1.81,-3.34 -0.98,-8.99 -0.21,-12.95 0.78,-4 1.88,-8.57 4.07,-12.24 1.7,-2.87 4.1,-4.96 6.4,-5.58 5.33,-1.43 8.49,-6.92 7.06,-12.25 -1.2,-4.46 -5.24,-7.41 -9.66,-7.41 -0.86,0 -1.73,0.11 -2.6,0.35 -7.41,2 -13.94,7.2 -18.39,14.65 -3.78,6.34 -5.46,13.29 -6.51,18.64 -1.48,7.57 -2.57,17.41 2.25,26.32 5.46,10.07 17.23,15.95 30.05,15.07 9.93,-0.7 19.47,-5.34 26.16,-12.72 6.69,-7.38 10.37,-17.33 10.09,-27.29 -0.15,-5.51 -4.73,-9.96 -10.27,-9.72 z m 852.92,-453.73 c -21.38,0 -43.07,6.15 -62.95,17.31 10.09,-16.29 18.84,-34.79 17.44,-52.72 -1.41,-17.97 -11.2,-35.23 -26.18,-46.18 -11.7,-8.55 -26.29,-13.14 -41.16,-13.14 -2.71,0 -5.44,0.25 -8.17,0.57 1.58,-11.39 2.87,-23.09 1.36,-35.18 -2.11,-16.78 -9.52,-30.72 -20.88,-39.23 -12.31,-9.23 -27.43,-11.04 -41.87,-12.11 -6.55,-0.49 -13.27,-0.9 -20.06,-0.9 -10.05,0 -20.25,0.91 -30.24,3.85 -20.05,5.91 -35.23,19.54 -40.63,36.45 -2.79,8.71 -2.8,17.57 -2.81,25.38 l -0.04,32.88 c -10.33,0.43 -20.91,2.59 -30.53,8.19 -17.44,10.15 -28.68,29.88 -29.32,51.48 -0.56,18.71 6.92,38.41 20.52,54.04 11.43,13.15 26.97,23.69 46.16,31.35 1.76,6.53 5.66,13.24 11.7,19.76 16.24,17.54 38.12,29.65 61.62,34.08 17.32,3.28 38.87,1.34 57.3,-4.28 -6.25,16.72 -11.12,35 -14.42,54.92 -7.35,44.29 -5.02,83.32 6.93,115.98 15.06,41.1 46.06,72.11 82.92,82.97 1.5,0.44 3.05,0.72 4.57,1.1 l -0.31,-0.03 c -2.01,18.73 -12.79,34.04 -21.47,43.59 -11.84,12.99 -26.96,23.51 -41.53,32.95 -80.07,51.86 -175.64,105.87 -277.31,113.24 -66.02,4.79 -134.3,9.73 -201.08,4.57 -72.46,-5.59 -134.79,-23.01 -185.53,-51.6 5.07,-9.69 9.02,-19.98 11.43,-30.69 1.21,-5.39 -2.16,-10.74 -7.55,-11.96 -5.39,-1.21 -10.75,2.17 -11.96,7.56 -6.01,26.7 -22.56,50.66 -45.4,65.73 -18.43,12.16 -41.73,18.92 -65.58,19.02 -12.94,-0.06 -36.95,-2.2 -51.45,-17.97 -5.22,-5.68 -9.41,-13.29 -12.8,-23.28 -9,-26.47 -7.9,-56.41 3.02,-82.16 10.91,-25.74 31.68,-47.34 56.96,-59.28 5,-2.36 7.14,-8.31 4.78,-13.31 -1.71,-3.62 -5.3,-5.74 -9.05,-5.74 -1.43,0 -2.89,0.31 -4.26,0.96 -11.38,5.38 -21.96,12.45 -31.43,20.79 -20.59,-23 -38.08,-61.4 -47.98,-91.49 -3.87,-11.77 -9.43,-28.33 -14.99,-44.89 -5.54,-16.48 -11.07,-32.95 -14.94,-44.74 2.09,-31.72 -3.9,-63.85 -11.43,-98.21 -7.93,-36.23 -16.83,-72.63 -26.12,-108.85 237.2851,-66.0547 350.3756,-253.39019 336.26,-416.561 l -4.22,0.371 22.16,-12.871 c 10.39,-6.028 22.17,-12.868 31.45,-22.789 11.28,-12.059 16.74,-26.899 15,-40.719 -3.06,-24.199 -25.66,-38.629 -45.8,-44.071 -9.84,-2.66 -20.3,-3.98 -31.18,-3.98 -13.76,0 -28.2,2.238 -42.88,6.449 -30.26,-38.949 -73.93,-69.019 -126.46,-86.988 -39.27,-13.422 -84.16,-20.211 -133.65,-20.211 -6.26,0 -12.6,0.109 -19.01,0.332 -57.49,1.957 -116.03,13.449 -166.93,32.418 -35.8,-73.289 -45.83,-160.219 -27.31,-239.609 18.41,-78.961 65.44,-152.09 129.43,-201.969 3.3,1.859 6.73,3.508 10.12,5.219 0.4,0.238 0.78,0.5 1.18,0.738 0.02,-0.027 0.05,-0.059 0.07,-0.09 1.92,0.949 3.75,2.031 5.69,2.93 5.03,2.32 10.95,0.133 13.27,-4.887 1.03,-2.242 1.05,-4.633 0.44,-6.832 2.68,-0.711 5.35,-1.5 7.97,-2.32 30.89,-9.641 63.52,-21.231 83.15,-48.508 l 8.89,11.098 c -0.17,-7.27 -1.35,-14.54 -3.26,-21.731 118.61,-59.7773 263.4,-78.0781 408.16,-51.4609 130.44,24.0239 255.9,106.4809 344.2,226.2499 44.19,59.942 72.07,130.961 99.03,199.641 3.49,8.902 6.98,17.793 10.51,26.679 92.95,233.961 152.76,479.522 177.9,729.952 -6.5,-2.41 -13.05,-4.29 -19.64,-5.49 -6.52,-1.18 -13.15,-1.77 -19.82,-1.77"
         style="fill:#71c2e2;fill-opacity:1;fill-rule:nonzero;stroke:none"
         transform="matrix(0.13333333,0,0,-0.13333333,0,245.85333)"
         sodipodi:nodetypes="ccscccsccccccccccscccccsccccccsccccsccccccccccccccccccccccccsccccccsccccccccccsccsccsccccccccccccccccccccc" />
      <path
         id="path9"
         d="m 1273.46,710.031 c 1.01,2.367 1.61,4.821 1.79,7.328 -0.63,-2.429 -1.23,-4.859 -1.79,-7.328"
         style="fill:#71c2e2;fill-opacity:1;fill-rule:nonzero;stroke:none"
         transform="matrix(0.13333333,0,0,-0.13333333,0,245.85333)" />
      <path
         id="path10"
         d="m 1293.02,653.379 c -0.16,0.043 -0.33,0.07 -0.49,0.101 -6.91,1.372 -14.16,2.258 -20.84,4.54 -5.55,1.902 -9.39,5.39 -11.57,9.742 -0.76,-2.172 -1.42,-4.133 -1.88,-5.602 22.34,-8.41 46.3,-15.211 70.98,-20.422 -0.23,0.571 -0.39,1.172 -0.44,1.782 -11.92,3.289 -23.84,6.582 -35.76,9.859"
         style="fill:#71c2e2;fill-opacity:1;fill-rule:nonzero;stroke:none"
         transform="matrix(0.13333333,0,0,-0.13333333,0,245.85333)" />
      <path
         id="path11"
         d="m 2406.26,1599.09 c -11.95,-6.75 -22.84,-16.28 -31.97,-27.84 2.77,3.46 5.75,6.78 8.95,9.91 6.97,6.8 15.15,12.2 23.02,17.93"
         style="fill:#71c2e2;fill-opacity:1;fill-rule:nonzero;stroke:none"
         transform="matrix(0.13333333,0,0,-0.13333333,0,245.85333)" />
      <path
         id="path12"
         d="m 2112.02,1435.3 c -35.79,-0.54 -64.65,28.33 -62.03,63.65 2.74,37 24.95,57.55 61.69,59.08 34.02,1.41 63.74,-30.65 62.41,-67.5 -5.02,-32.96 -24.13,-54.66 -62.07,-55.23 z m 56.1,192.46 c -34.19,34.63 -79.9,53.82 -128.72,54.03 -0.28,0 -0.55,0 -0.85,0 -102.57,0 -187.32,-80.97 -189.07,-180.87 -0.93,-52.69 17.64,-101.08 52.27,-136.29 32.97,-33.5 77.79,-51.95 126.24,-51.95 0.08,0 0.16,0 0.24,0 107.5,0.14 192.41,80.06 193.3,181.95 0.44,50.51 -18.53,97.79 -53.41,133.13"
         style="fill:#ffffff;fill-opacity:1;fill-rule:nonzero;stroke:none"
         transform="matrix(0.13333333,0,0,-0.13333333,0,245.85333)" />
      <path
         id="path13"
         d="m 2423.19,699.898 c 18.69,-4.097 37.82,-7.878 56.58,-6.839 21.79,1.16 40.62,9.339 51.68,22.41 4.41,5.23 7.79,11.461 9.78,18 4.42,14.543 0.78,30.16 -8.85,37.992 -7.35,5.98 -18.4,8.121 -28.14,10.008 l -53.16,10.312 c -8.75,-30.781 -18.05,-61.41 -27.89,-91.883"
         style="fill:#dcb390;fill-opacity:1;fill-rule:nonzero;stroke:none"
         transform="matrix(0.13333333,0,0,-0.13333333,0,245.85333)" />
      <path
         id="path14"
         d="m 1158.62,1367.05 c -9.26,6.84 -6.03,21.44 -1,31.87 20.84,43.21 56.36,78.97 98.93,100.94 8.09,4.17 57.94,27.2 57.68,10.37 10.85,6.02 20.8,13.11 27.41,23.45 6.25,9.76 9.35,22.01 17.87,29.62 -5.53,1.39 -11.15,2.21 -16.79,2.25 h -0.51 c -23.42,0 -46.35,-11.57 -63.73,-21.68 -52.41,-30.48 -98.81,-73.07 -134.19,-123.17 -11.39,-16.12 -21.51,-33.02 -30.72,-50.44 10.49,-7.37 21.19,-14.41 32.08,-21.13 3.1,6.17 8.48,12.05 12.97,17.92"
         style="fill:#6cbcde;fill-opacity:1;fill-rule:nonzero;stroke:none"
         transform="matrix(0.13333333,0,0,-0.13333333,0,245.85333)" />
      <path
         id="path15"
         d="m 1314.23,1510.23 c -0.01,-1.01 -0.15,-2.12 -0.54,-3.43 -2.78,-9.17 -23.9,-18.75 -31.26,-24.4 -10.51,-8.06 -20.59,-16.67 -30.19,-25.77 -22.31,-21.16 -42.07,-45.02 -58.62,-70.93 -4.01,-6.28 -7.99,-12.84 -14.02,-17.21 -6.04,-4.35 -14.81,-5.92 -20.85,-1.57 -0.05,0.04 -0.08,0.09 -0.13,0.13 -4.49,-5.87 -9.87,-11.75 -12.97,-17.92 12.45,-7.69 25.16,-14.91 38.08,-21.74 17.48,-8.27 34.96,-16.54 52.44,-24.82 38.2,-16.06 77.91,-28.51 118.52,-37.11 8.32,1.9 16.67,1.59 24.6,-2.33 1.81,-0.89 3.34,-2.06 4.89,-3.2 4.76,-0.78 9.52,-1.56 14.3,-2.24 9.13,35.63 17.87,71.43 25.68,107.06 10.57,48.23 18.04,91.6 2.38,133.98 -12.1,32.78 -38.31,57.32 -67.03,64.57 -8.52,-7.61 -11.62,-19.86 -17.87,-29.62 -6.61,-10.34 -16.56,-17.43 -27.41,-23.45"
         style="fill:#4ca7d5;fill-opacity:1;fill-rule:nonzero;stroke:none"
         transform="matrix(0.13333333,0,0,-0.13333333,0,245.85333)" />
      <path
         id="path16"
         d="m 942.551,838.941 c -1.422,2.188 -1.93,4.797 -1.348,7.461 l -2.73,-9.031 c -0.02,-0.062 -0.035,-0.109 -0.051,-0.172 0.867,0.41 1.586,1 2.519,1.332 0.532,0.188 1.075,0.258 1.61,0.41"
         style="fill:#6cbedf;fill-opacity:1;fill-rule:nonzero;stroke:none"
         transform="matrix(0.13333333,0,0,-0.13333333,0,245.85333)" />
      <path
         id="path17"
         d="m 954.379,853.625 35.184,-13.555 c 11.567,3.262 21.587,11.508 28.847,21.258 8.52,11.438 13.87,24.863 19.48,37.973 22.06,51.48 50.26,102.539 83.04,149.989 8.44,18.89 18.19,37.42 25.62,56.6 2.62,6.74 18.42,48.36 30.77,23.76 1.06,-2.1 1.28,-4.4 1.1,-6.75 5.03,5.69 10.01,11.46 15.18,16.95 21.64,22.99 45.81,43.03 70.4,62.74 16.76,13.43 33.51,26.86 50.26,40.29 3.69,2.96 7.61,5.94 11.68,8.75 -79.02,19.84 -154.29,53.88 -221.29,100.45 -10.32,-22.12 -19.75,-44.61 -28.52,-67.38 -13.32,-36.25 -24.59,-73.4 -35.67,-110.03 L 941.828,848.469 c 2.207,4.719 7.633,7.043 12.551,5.156"
         style="fill:#6cbedf;fill-opacity:1;fill-rule:nonzero;stroke:none"
         transform="matrix(0.13333333,0,0,-0.13333333,0,245.85333)" />
      <path
         id="path18"
         d="m 1236.17,1302.57 c -17.48,8.28 -34.96,16.55 -52.44,24.82 17.11,-9.04 34.61,-17.32 52.44,-24.82"
         style="fill:#6cbedf;fill-opacity:1;fill-rule:nonzero;stroke:none"
         transform="matrix(0.13333333,0,0,-0.13333333,0,245.85333)" />
      <path
         id="path19"
         d="m 1354.69,1265.46 c 9.78,-2.07 19.61,-3.91 29.49,-5.53 -1.55,1.14 -3.08,2.31 -4.89,3.2 -7.93,3.92 -16.28,4.23 -24.6,2.33"
         style="fill:#4ca3d4;fill-opacity:1;fill-rule:nonzero;stroke:none"
         transform="matrix(0.13333333,0,0,-0.13333333,0,245.85333)" />
      <path
         id="path20"
         d="m 1237.47,668 1.75,0.359 c 1.61,5.102 4.44,13.2 9.18,24.621 1.68,4.051 3.14,10.661 4.69,17.649 2.3,10.449 4.68,21.242 8.91,29.453 l 3.04,5.898 c 9.56,18.551 19.45,37.719 28.52,56.801 40.92,86.067 73.36,176.504 96.44,268.799 4.7,18.8 9.31,38.81 9.6,58.61 0.18,11.57 -1.19,22.37 -4.05,32.09 -0.84,2.85 -2.22,5.83 -3.67,8.99 -2.77,6.02 -5.91,12.84 -6.21,20.84 0,8.76 0.19,17.01 2.51,25.57 1.84,6.8 3.49,13.71 5.29,20.55 -22.75,3.28 -45.28,7.81 -67.53,13.4 -4.07,-2.81 -7.99,-5.79 -11.68,-8.75 -16.75,-13.43 -33.5,-26.86 -50.26,-40.29 -24.59,-19.71 -48.76,-39.75 -70.4,-62.74 -5.17,-5.49 -10.15,-11.26 -15.18,-16.95 -0.18,-2.58 -0.85,-5.21 -1.56,-7.69 -22.61,-78.85 -45.21,-157.687 -67.81,-236.53 -2.86,-9.973 -5.92,-20.321 -12.86,-28.035 -6.94,-7.715 -18.97,-11.907 -27.97,-6.735 -13.11,7.543 -10.79,26.871 -6.5,41.371 15.69,53.012 34.3,105.16 55.7,156.129 1.11,2.64 2.34,5.25 3.51,7.88 -32.78,-47.45 -60.98,-98.509 -83.04,-149.989 -5.61,-13.11 -10.96,-26.535 -19.48,-37.973 -7.26,-9.75 -17.28,-17.996 -28.847,-21.258 l 84.187,-32.441 c 5.16,-1.988 7.72,-7.77 5.74,-12.93 -1.53,-3.969 -5.32,-6.398 -9.33,-6.398 -1.2,0 -2.42,0.211 -3.6,0.66 l -119.369,46 c -2.046,0.789 -3.535,2.269 -4.64,3.98 -0.535,-0.152 -1.078,-0.222 -1.61,-0.41 -0.933,-0.332 -1.652,-0.922 -2.519,-1.332 -7.156,-23.699 -13.211,-48.347 -2.488,-66.769 6.711,-11.532 19.371,-19.2 31.757,-26.078 41.539,-23.071 85.979,-41.442 132.099,-54.633 23.96,-6.848 48.59,-12.328 73.2,-16.289 4.09,-0.649 8.5,-1.489 13.11,-2.36 17.57,-3.32 37.47,-7.07 51.37,-3.07"
         style="fill:#4ca3d4;fill-opacity:1;fill-rule:nonzero;stroke:none"
         transform="matrix(0.13333333,0,0,-0.13333333,0,245.85333)" />
      <path
         id="path21"
         d="m 942.551,838.941 c 1.105,-1.711 2.594,-3.191 4.64,-3.98 l 119.369,-46 c 1.18,-0.449 2.4,-0.66 3.6,-0.66 4.01,0 7.8,2.429 9.33,6.398 1.98,5.16 -0.58,10.942 -5.74,12.93 l -84.187,32.441 -35.184,13.555 c -4.918,1.887 -10.344,-0.437 -12.551,-5.156 l -0.625,-2.067 c -0.582,-2.664 -0.074,-5.273 1.348,-7.461"
         style="fill:#ffffff;fill-opacity:1;fill-rule:nonzero;stroke:none"
         transform="matrix(0.13333333,0,0,-0.13333333,0,245.85333)" />
      <path
         id="path22"
         d="m 1179.6,1368.49 c 6.03,4.37 10.01,10.93 14.02,17.21 16.55,25.91 36.31,49.77 58.62,70.93 9.6,9.1 19.68,17.71 30.19,25.77 7.36,5.65 28.48,15.23 31.26,24.4 0.39,1.31 0.53,2.42 0.54,3.43 0.26,16.83 -49.59,-6.2 -57.68,-10.37 -42.57,-21.97 -78.09,-57.73 -98.93,-100.94 -5.03,-10.43 -8.26,-25.03 1,-31.87 0.05,-0.04 0.08,-0.09 0.13,-0.13 6.04,-4.35 14.81,-2.78 20.85,1.57"
         style="fill:#ffffff;fill-opacity:1;fill-rule:nonzero;stroke:none"
         transform="matrix(0.13333333,0,0,-0.13333333,0,245.85333)" />
      <path
         id="path23"
         d="m 1616.7,756.891 c -19.68,-20.672 -46.52,-36.711 -77.95,-46.379 -25.87,-7.973 -54.73,-11.961 -90.81,-12.571 -3.18,-0.043 -6.37,-0.07 -9.56,-0.07 -54.94,0 -109.38,7.91 -162.11,23.41 -0.36,-1.261 -0.68,-2.609 -1.02,-3.922 -0.18,-2.507 -0.78,-4.961 -1.79,-7.328 -0.28,-1.242 -0.58,-2.492 -0.85,-3.711 -1.74,-7.89 -3.38,-15.332 -5.74,-21.011 -3.1,-7.457 -10.7594,-28.67844 -12.2894,-33.05744 2.18,-4.352 11.5594,7.67044 17.1094,5.76844 24.3717,-12.9812 54.7149,-25.3127 54.9449,-25.8837 9.61,-2.019 53.2971,-24.43 41.231,-4.1193 24.3,-1.5 31.4724,-2.68222 55.6824,-5.41322 49.29,-0.449 103.3717,13.62622 141.8717,26.78722 46.42,15.871 85.15,41.808 112.8,75.109 -20.57,8.309 -39.73,19.219 -57.68,30.031 -1.3,0.778 -2.55,1.578 -3.84,2.36"
         style="fill:#5490bd;fill-opacity:1;fill-rule:nonzero;stroke:none"
         transform="matrix(0.13333333,0,0,-0.13333333,0,245.85333)"
         sodipodi:nodetypes="cccscccccccccccccc" />
      <path
         id="path24"
         d="m 2416.55,1684.43 c 1.6,-1.76 3.26,-3.73 4.93,-5.81 0.53,0.62 0.98,1.3 1.67,1.79 4.51,3.23 10.75,2.19 13.96,-2.3 7.61,-10.61 9.04,-25.02 3.78,-36.96 0.78,-2.98 1.4,-6.05 1.84,-9.22 3.94,0.97 7.76,2.05 11.34,3.52 21.32,8.7 35.63,32.54 33.29,55.45 -2.32,22.91 -21.15,43.38 -43.78,47.61 -22.4,4.19 -46.97,-7.78 -57.63,-27.87 10.81,-7.66 21.43,-16.13 30.6,-26.21"
         style="fill:#71c2e2;fill-opacity:1;fill-rule:nonzero;stroke:none"
         transform="matrix(0.13333333,0,0,-0.13333333,0,245.85333)" />
      <path
         id="path25"
         d="m 1146.55,1105.89 c -7.43,-19.18 -17.18,-37.71 -25.62,-56.6 -1.17,-2.63 -2.4,-5.24 -3.51,-7.88 -21.4,-50.969 -40.01,-103.117 -55.7,-156.129 -4.29,-14.5 -6.61,-33.828 6.5,-41.371 9,-5.172 21.03,-0.98 27.97,6.735 6.94,7.714 10,18.062 12.86,28.035 22.6,78.843 45.2,157.68 67.81,236.53 0.71,2.48 1.38,5.11 1.56,7.69 0.18,2.35 -0.04,4.65 -1.1,6.75 -12.35,24.6 -28.15,-17.02 -30.77,-23.76"
         style="fill:#ffffff;fill-opacity:1;fill-rule:nonzero;stroke:none"
         transform="matrix(0.13333333,0,0,-0.13333333,0,245.85333)" />
      <path
         id="path26"
         d="m 2304.85,1186 1.13,-85.2 c 9.09,0.98 17.49,2.76 23.78,7.47 6.87,5.16 11.62,14.53 13.02,25.73 1.36,10.77 -1.37,26.66 -3.07,38.21 -5.4,1.95 -10.69,4.08 -15.82,6.31 -6.5,2.83 -12.77,5.48 -19.04,7.48"
         style="fill:#ffffff;fill-opacity:1;fill-rule:nonzero;stroke:none"
         transform="matrix(0.13333333,0,0,-0.13333333,0,245.85333)" />
      <path
         id="path27"
         d="m 2239.62,1181.35 c -4.1,-0.9 -8.68,-1.78 -13.52,-2.47 l 0.04,-33.91 c 0.01,-6.67 0.02,-13.58 1.86,-19.33 3.97,-12.46 16.68,-20.23 27.23,-23.34 9.66,-2.84 20.23,-3.25 30.76,-2.88 l -1.19,89.79 c -11.34,-0.01 -23.03,-2.65 -35.25,-5.56 -3.32,-0.78 -6.63,-1.56 -9.93,-2.3"
         style="fill:#ffffff;fill-opacity:1;fill-rule:nonzero;stroke:none"
         transform="matrix(0.13333333,0,0,-0.13333333,0,245.85333)" />
      <path
         id="path29"
         d="m 1412.56,1232.15 c -1.73,-6.55 -3.31,-13.18 -5.07,-19.7 -1.68,-6.2 -1.82,-12.72 -1.82,-19.99 0.14,-3.63 2.1,-7.89 4.37,-12.82 1.7,-3.67 3.45,-7.47 4.7,-11.71 0.67,-2.29 0.6463,-6.8631 1.1763,-9.2331 0.9013,-0.092 3.4905,-0.9577 4.1014,-1.3618 54.491,-24.7868 121.397,-61.4452 174.9723,-109.8151 20.48,-18.49 46,-43.75 61.73,-75.325 14.87,-29.812 18.73,-61.757 11.2,-89.336 l 66.42,-38.566 c 5.28,86.789 -27.17,176.817 -89.9,248.167 -57.34,65.22 -137.48,113.34 -231.88,139.69"
         style="fill:#5490bd;fill-opacity:1;fill-rule:nonzero;stroke:none"
         transform="matrix(0.13333333,0,0,-0.13333333,0,245.85333)"
         sodipodi:nodetypes="cccccccsccccc" />
      <path
         id="path30"
         d="m 2398.8,1195.4 c 10.33,7.55 17.08,19.36 18.04,31.6 1.4,17.9 -13.78,40.41 -25.69,57.48 -24.48,-6.3 -50.62,-9.63 -76.14,-9.63 -26.75,0 -52.7,3.49 -75,10.55 -8.78,2.78 -19.16,7.2 -24.63,16.65 -13.83,-6.2 -25.19,-14.07 -33.51,-23.65 -10.35,-11.88 -16.04,-26.58 -15.62,-40.32 0.42,-14.53 8.03,-28.18 19.38,-34.78 14.93,-8.7 35.5,-5.55 49.67,-2.42 3.21,0.71 6.42,1.47 9.63,2.23 16.53,3.92 33.61,7.96 51.45,5.45 12.83,-1.82 24.35,-6.85 35.5,-11.71 10.41,-4.54 20.26,-8.83 30.44,-10.25 13.06,-1.8 26.34,1.4 36.48,8.8"
         style="fill:#dcb390;fill-opacity:1;fill-rule:nonzero;stroke:none"
         transform="matrix(0.13333333,0,0,-0.13333333,0,245.85333)" />
      <path
         id="path31"
         d="m 2355.41,1345.72 c -16.02,10.05 -45.36,15.11 -65.45,11.35 -19.32,-3.65 -37.3,-13.59 -50.65,-28.01 -4.54,-4.92 -8.79,-11.74 -7.08,-16.14 1.62,-4.16 8.66,-6.82 13.81,-8.45 40.21,-12.73 93.39,-12.75 139.97,-0.75 -1.71,1.73 -3.49,3.35 -5.13,5.17 -9.7,10.81 -18.19,23.11 -25.47,36.83"
         style="fill:#1e3058;fill-opacity:1;fill-rule:nonzero;stroke:none"
         transform="matrix(0.13333333,0,0,-0.13333333,0,245.85333)" />
      <path
         id="path32"
         d="m 1393.17,196.18 c -2.62,0.82 -5.29,1.609 -7.97,2.32 -0.76,-2.738 -2.55,-5.16 -5.33,-6.441 -1.93,-0.887 -3.76,-1.95 -5.65,-2.918 -14.92,-9.332 -28.85,-20.141 -41.38,-32.672 -17.24,-17.25 -27.32,-33.481 -30.82,-49.617 -4.11,-18.9731 2.26,-38.5434 15.49,-47.5825 8.05,-5.5 19.09,-7.8086 31.13,-6.4101 12.46,1.3906 24.47,6.3125 34.56,10.9219 24.34,11.1289 42.7,23.4804 56.14,37.7777 l 36.98,46.113 c -19.63,27.277 -52.26,38.867 -83.15,48.508"
         style="fill:#dbb28f;fill-opacity:1;fill-rule:nonzero;stroke:none"
         transform="matrix(0.13333333,0,0,-0.13333333,0,245.85333)" />
      <path
         id="path33"
         d="m 2030.81,112.672 c 8.22,-26.3712 22.24,-50.8907 40.96,-71.2111 11.68,-12.6914 21.91,-19.3711 32.19,-21.0703 16.7,-2.6601 35.8,9.8594 42.69,28.0782 6.37,16.8398 4.15,38.2695 -6.08,58.8012 -9.02,18.101 -22.86,33.91 -36.64,49.152 -23.55,-16.531 -48,-31.141 -73.12,-43.75"
         style="fill:#dcb390;fill-opacity:1;fill-rule:nonzero;stroke:none"
         transform="matrix(0.13333333,0,0,-0.13333333,0,245.85333)" />
      <path
         id="path34"
         d="M 843.043,1147.21 0,1110.42 832.531,1073.63 Z"
         style="fill:#202b4f;fill-opacity:1;fill-rule:nonzero;stroke:none"
         transform="matrix(0.13333333,0,0,-0.13333333,0,245.85333)" />
      <path
         id="path35"
         d="m 952.363,1346.94 -639.113,-36.8 631.145,-36.78 z"
         style="fill:#202b4f;fill-opacity:1;fill-rule:nonzero;stroke:none"
         transform="matrix(0.13333333,0,0,-0.13333333,0,245.85333)" />
      <path
         id="path36"
         d="m 342.684,910.699 479.586,-36.793 6.054,73.582 z"
         style="fill:#202b4f;fill-opacity:1;fill-rule:nonzero;stroke:none"
         transform="matrix(0.13333333,0,0,-0.13333333,0,245.85333)" />
      <path
         id="path37"
         d="m 1603.39,1764.3 c -12.82,0.88 -24.59,-5 -30.05,-15.07 -4.82,-8.91 -3.73,-18.75 -2.25,-26.32 1.05,-5.35 2.73,-12.3 6.51,-18.64 4.45,-7.45 10.98,-12.65 18.39,-14.65 0.87,-0.24 1.74,-0.35 2.6,-0.35 4.42,0 8.46,2.95 9.66,7.41 1.43,5.33 -1.73,10.82 -7.06,12.25 -2.3,0.62 -4.7,2.71 -6.4,5.58 -2.19,3.67 -3.29,8.24 -4.07,12.24 -0.77,3.96 -1.6,9.61 0.21,12.95 1.64,3.04 6.28,4.96 11.04,4.66 4.77,-0.34 9.54,-2.66 12.76,-6.21 3.21,-3.54 5.06,-8.52 4.92,-13.3 -0.15,-5.53 4.2,-10.12 9.72,-10.28 5.54,-0.24 10.12,4.21 10.27,9.72 0.28,9.96 -3.4,19.91 -10.09,27.29 -6.69,7.38 -16.23,12.02 -26.16,12.72"
         style="fill:#100f0d;fill-opacity:1;fill-rule:nonzero;stroke:none"
         transform="matrix(0.13333333,0,0,-0.13333333,0,245.85333)" />
      <path
         id="path38"
         d="m 2553.79,1310.14 c -18.03,-15.08 -36.62,-24.45 -55.27,-27.85 -34.83,-6.39 -75.23,9.32 -102.76,39.98 -23.54,26.2 -39.32,62.66 -46.9,108.36 -6.78,40.84 -4.77,76.45 5.99,105.83 1.52,4.16 3.27,8.19 5.18,12.11 1.47,3.02 3.15,5.91 4.85,8.8 0.55,0.93 1.03,1.93 1.6,2.85 2.41,3.87 5.05,7.52 7.81,11.03 9.13,11.56 20.02,21.09 31.97,27.84 5.92,3.35 12.04,6.17 18.37,8.03 4.47,1.31 9.03,2.29 13.6,3.27 7.68,1.65 15.63,3.36 23.41,6.54 3.17,1.3 6.23,2.82 9.15,4.55 65.09,-11.75 122.36,-63.57 140.13,-127.31 18.1,-65.02 -5.38,-140.69 -57.13,-184.03 z m -307.75,-5.67 c -5.15,1.63 -12.19,4.29 -13.81,8.45 -1.71,4.4 2.54,11.22 7.08,16.14 13.35,14.42 31.33,24.36 50.65,28.01 20.09,3.76 49.43,-1.3 65.45,-11.35 7.28,-13.72 15.77,-26.02 25.47,-36.83 1.64,-1.82 3.42,-3.44 5.13,-5.17 -46.58,-12 -99.76,-11.98 -139.97,0.75 z m 39.95,-205.05 c -10.53,-0.37 -21.1,0.04 -30.76,2.88 -10.55,3.11 -23.26,10.88 -27.23,23.34 -1.84,5.75 -1.85,12.66 -1.86,19.33 l -0.04,33.91 c 4.84,0.69 9.42,1.57 13.52,2.47 3.3,0.74 6.61,1.52 9.93,2.3 12.22,2.91 23.91,5.55 35.25,5.56 z m 56.79,34.58 c -1.4,-11.2 -6.15,-20.57 -13.02,-25.73 -6.29,-4.71 -14.69,-6.49 -23.78,-7.47 l -1.13,85.2 c 6.27,-2 12.54,-4.65 19.04,-7.48 5.13,-2.23 10.42,-4.36 15.82,-6.31 1.7,-11.55 4.43,-27.44 3.07,-38.21 z m -10.9,62.85 c -11.15,4.86 -22.67,9.89 -35.5,11.71 -17.84,2.51 -34.92,-1.53 -51.45,-5.45 -3.21,-0.76 -6.42,-1.52 -9.63,-2.23 -14.17,-3.13 -34.74,-6.28 -49.67,2.42 -11.35,6.6 -18.96,20.25 -19.38,34.78 -0.42,13.74 5.27,28.44 15.62,40.32 8.32,9.58 19.68,17.45 33.51,23.65 5.47,-9.45 15.85,-13.87 24.63,-16.65 22.3,-7.06 48.25,-10.55 75,-10.55 25.52,0 51.66,3.33 76.14,9.63 11.91,-17.07 27.09,-39.58 25.69,-57.48 -0.96,-12.24 -7.71,-24.05 -18.04,-31.6 -10.14,-7.4 -23.42,-10.6 -36.48,-8.8 -10.18,1.42 -20.03,5.71 -30.44,10.25 z m 11.97,-658.702 c -3.53,-8.886 -7.02,-17.777 -10.51,-26.679 -26.96,-68.68 -54.84,-139.699 -99.03,-199.641 -88.3,-119.769 -213.76,-202.226 -344.2,-226.2499 -144.76,-26.6172 -289.55,-8.3164 -408.16,51.4609 1.91,7.191 3.09,14.461 3.26,21.731 l -8.89,-11.098 -36.98,-46.113 c -13.44,-14.2973 -31.8,-26.6488 -56.14,-37.7777 -10.09,-4.6094 -22.1,-9.5313 -34.56,-10.9219 -12.04,-1.3985 -23.08,0.9101 -31.13,6.4101 -13.23,9.0391 -19.6,28.6094 -15.49,47.5825 3.5,16.136 13.58,32.367 30.82,49.617 12.53,12.531 26.46,23.34 41.38,32.672 1.89,0.968 3.72,2.031 5.65,2.918 2.78,1.281 4.57,3.703 5.33,6.441 0.61,2.199 0.59,4.59 -0.44,6.832 -2.32,5.02 -8.24,7.207 -13.27,4.887 -1.94,-0.899 -3.77,-1.981 -5.69,-2.93 -0.02,0.031 -0.05,0.063 -0.07,0.09 -0.4,-0.238 -0.78,-0.5 -1.18,-0.738 -3.39,-1.711 -6.82,-3.36 -10.12,-5.219 -63.99,49.879 -111.02,123.008 -129.43,201.969 -18.52,79.39 -8.49,166.32 27.31,239.609 50.9,-18.969 109.44,-30.461 166.93,-32.418 6.41,-0.223 12.75,-0.332 19.01,-0.332 49.49,0 94.38,6.789 133.65,20.211 52.53,17.969 96.2,48.039 126.46,86.988 14.68,-4.211 29.12,-6.449 42.88,-6.449 10.88,0 21.34,1.32 31.18,3.98 20.14,5.442 42.74,19.872 45.8,44.071 1.74,13.82 -3.72,28.66 -15,40.719 -9.28,9.921 -21.06,16.761 -31.45,22.789 l -22.16,12.871 3.7558,-2.53741 c 0.52,6.011 1.3142,14.19341 1.4942,20.22041 0.2353,13.74623 -0.12,26.61 -1.36,39.922 -7,75.77 -39.77,150.915 -94.04,212.625 -59.99,68.24 -143.57,118.59 -241.89,145.96 9.29,36.22 18.19,72.62 26.12,108.85 7.53,34.36 13.52,66.49 11.43,98.21 3.87,11.79 9.4,28.26 14.94,44.74 5.56,16.56 11.12,33.12 14.99,44.89 9.9,30.09 27.39,68.49 47.98,91.49 9.47,-8.34 20.05,-15.41 31.43,-20.79 1.37,-0.65 2.83,-0.96 4.26,-0.96 3.75,0 7.34,2.12 9.05,5.74 2.36,5 0.22,10.95 -4.78,13.31 -25.28,11.94 -46.05,33.54 -56.96,59.28 -10.92,25.75 -12.02,55.69 -3.02,82.16 3.39,9.99 7.58,17.6 12.8,23.28 14.5,15.77 38.51,17.91 51.45,17.97 23.85,-0.1 47.15,-6.86 65.58,-19.02 22.84,-15.07 39.39,-39.03 45.4,-65.73 1.21,-5.39 6.57,-8.77 11.96,-7.56 5.39,1.22 8.76,6.57 7.55,11.96 -2.41,10.71 -6.36,21 -11.43,30.69 50.74,28.59 113.07,46.01 185.53,51.6 66.78,5.16 135.06,0.22 201.08,-4.57 101.67,-7.37 197.24,-61.38 277.31,-113.24 14.57,-9.44 29.69,-19.96 41.53,-32.95 8.68,-9.55 19.46,-24.86 21.47,-43.59 l 0.31,0.03 c -1.52,-0.38 -3.07,-0.66 -4.57,-1.1 -36.86,-10.86 -67.86,-41.87 -82.92,-82.97 -11.95,-32.66 -14.28,-71.69 -6.93,-115.98 3.3,-19.92 8.17,-38.2 14.42,-54.92 -18.43,5.62 -39.98,7.56 -57.3,4.28 -23.5,-4.43 -45.38,-16.54 -61.62,-34.08 -6.04,-6.52 -9.94,-13.23 -11.7,-19.76 -19.19,-7.66 -34.73,-18.2 -46.16,-31.35 -13.6,-15.63 -21.08,-35.33 -20.52,-54.04 0.64,-21.6 11.88,-41.33 29.32,-51.48 9.62,-5.6 20.2,-7.76 30.53,-8.19 l 0.04,-32.88 c 0.01,-7.81 0.02,-16.67 2.81,-25.38 5.4,-16.91 20.58,-30.54 40.63,-36.45 9.99,-2.94 20.19,-3.85 30.24,-3.85 6.79,0 13.51,0.41 20.06,0.9 14.44,1.07 29.56,2.88 41.87,12.11 11.36,8.51 18.77,22.45 20.88,39.23 1.51,12.09 0.22,23.79 -1.36,35.18 2.73,-0.32 5.46,-0.57 8.17,-0.57 14.87,0 29.46,4.59 41.16,13.14 14.98,10.95 24.77,28.21 26.18,46.18 1.4,17.93 -7.35,36.43 -17.44,52.72 19.88,-11.16 41.57,-17.31 62.95,-17.31 6.67,0 13.3,0.59 19.82,1.77 6.59,1.2 13.14,3.08 19.64,5.49 -25.14,-250.43 -84.95,-495.991 -177.9,-729.952 z m 160.39,243.321 c 9.74,-1.887 20.79,-4.028 28.14,-10.008 9.63,-7.832 13.27,-23.449 8.85,-37.992 -1.99,-6.539 -5.37,-12.77 -9.78,-18 -11.06,-13.071 -29.89,-21.25 -51.68,-22.41 -18.76,-1.039 -37.89,2.742 -56.58,6.839 9.84,30.473 19.14,61.102 27.89,91.883 z M 2140.57,107.27 c 10.23,-20.5317 12.45,-41.9614 6.08,-58.8012 -6.89,-18.2188 -25.99,-30.7383 -42.69,-28.0782 -10.28,1.6992 -20.51,8.3789 -32.19,21.0703 -18.72,20.3204 -32.74,44.8399 -40.96,71.2111 25.12,12.609 49.57,27.219 73.12,43.75 13.78,-15.242 27.62,-31.051 36.64,-49.152 z m -954.47,563.8 c -4.61,0.871 -9.02,1.711 -13.11,2.36 -24.61,3.961 -49.24,9.441 -73.2,16.289 -46.12,13.191 -90.56,31.562 -132.099,54.633 -12.386,6.878 -25.046,14.546 -31.757,26.078 -10.723,18.422 -4.668,43.07 2.488,66.769 0.016,0.063 0.031,0.11 0.051,0.172 l 2.73,9.031 0.625,2.067 98.632,326.201 c 11.08,36.63 22.35,73.78 35.67,110.03 8.45,22.99 17.7,45.63 28.29,67.53 0.08,-0.05 0.15,-0.1 0.23,-0.15 67,-46.57 142.27,-80.61 221.29,-100.45 22.25,-5.59 44.78,-10.12 67.53,-13.4 -1.8,-6.84 -3.45,-13.75 -5.29,-20.55 -2.32,-8.56 -2.51,-16.81 -2.51,-25.57 0.3,-8 3.44,-14.82 6.21,-20.84 1.45,-3.16 2.83,-6.14 3.67,-8.99 2.86,-9.72 4.23,-20.52 4.05,-32.09 -0.29,-19.8 -4.9,-39.81 -9.6,-58.61 -23.08,-92.295 -55.52,-182.732 -96.44,-268.799 -9.07,-19.082 -18.96,-38.25 -28.52,-56.801 l -3.04,-5.898 c -4.23,-8.211 -6.61,-19.004 -8.91,-29.453 -1.55,-6.988 -3.01,-13.598 -4.69,-17.649 -4.74,-11.421 -7.57,-19.519 -9.18,-24.621 L 1237.47,668 c -13.9,-4 -33.8,-0.25 -51.37,3.07 z m 548.24,173.223 -66.42,38.566 c 7.53,27.579 3.67,59.524 -11.2,89.336 -15.73,31.575 -41.25,56.835 -61.73,75.325 -50.02,45.16 -107.41,78.58 -153.77,101.31 -1.94,0.94 -3.96,1.99 -5.86,2.9 -5.87,2.82 -11.49,5.43 -16.92,7.9 -0.59,0.26 -1.26,0.59 -1.85,0.85 -0.03,0.15 -0.07,0.29 -0.1,0.44 -0.53,2.37 -1.08,4.72 -1.75,7.01 -1.25,4.24 -3,8.04 -4.7,11.71 -2.27,4.93 -4.23,9.19 -4.37,12.82 0,7.27 0.14,13.79 1.82,19.99 1.76,6.52 3.34,13.15 5.07,19.7 94.4,-26.35 174.54,-74.47 231.88,-139.69 62.73,-71.35 95.18,-161.378 89.9,-248.167 z M 1678.22,724.5 c -27.65,-33.301 -66.38,-59.238 -112.8,-75.109 -38.5,-13.161 -82.98,-19.481 -132.27,-19.032 -4.39,0.039 -8.76,0.051 -13.23,0.2 -20.55,0.711 -41.23,2.691 -61.61,5.82 -9.79,1.5 -19.48,3.34 -29.09,5.359 -24.68,5.211 -48.64,12.012 -70.98,20.422 0.46,1.469 1.12,3.43 1.88,5.602 1.53,4.379 3.65,10.09 6.75,17.547 2.36,5.679 4,13.121 5.74,21.011 0.27,1.219 0.57,2.469 0.85,3.711 0.56,2.469 1.16,4.899 1.79,7.328 0.34,1.313 0.66,2.661 1.02,3.922 52.73,-15.5 107.17,-23.41 162.11,-23.41 3.19,0 6.38,0.027 9.56,0.07 36.08,0.61 64.94,4.598 90.81,12.571 31.43,9.668 58.27,25.707 77.95,46.379 1.29,-0.782 2.54,-1.582 3.84,-2.36 17.95,-10.812 37.11,-21.722 57.68,-30.031 z m -47.37,47.172 c -16.49,9.91 -31.06,19.148 -42.24,31.828 -11.93,13.539 -17.65,29.352 -15.7,43.375 1.81,13.035 13.17,27.172 27.2,27.438 4.01,0.078 7.58,2.531 9.08,6.242 1.47,3.621 0.66,7.722 -1.99,10.558 -0.07,0.078 -0.11,0.176 -0.18,0.25 -1.97,1.973 -4.12,3.778 -6.29,5.575 -1.67,1.386 -3.35,2.757 -4.87,4.281 -3.89,3.926 -10.23,3.941 -14.14,0.039 -3.32,-3.297 -3.83,-8.348 -1.55,-12.195 -13.98,-7.485 -24.68,-22.243 -27.07,-39.438 -2.75,-19.805 4.73,-41.434 20.51,-59.344 7.61,-8.633 16.49,-15.75 25.94,-22.301 -17.07,-16.89 -39.94,-30.121 -66.68,-38.351 -24.03,-7.399 -51.12,-11.117 -85.26,-11.688 -55.31,-0.882 -110.18,6.489 -163.27,21.84 9.16,17.77 18.56,36.051 27.29,54.399 41.48,87.277 74.38,178.972 97.77,272.55 4.98,19.93 9.88,41.23 10.2,63.17 0.04,2.45 -0.06,4.84 -0.14,7.24 47,-22.04 109.03,-56.53 162.13,-104.46 19.17,-17.31 42.99,-40.836 57.23,-69.41 11.73,-23.508 15.43,-48.235 10.99,-69.895 l -9.57,5.555 c -4.76,2.769 -10.88,1.152 -13.66,-3.629 -0.33,-0.555 -0.39,-1.164 -0.6,-1.75 -1.56,-4.438 0.01,-9.465 4.23,-11.914 l 131.52,-76.367 c 9.64,-5.61 19.62,-11.399 26.88,-19.168 7.1,-7.582 10.76,-16.762 9.77,-24.543 -1.83,-14.411 -17.93,-23.688 -31.17,-27.27 -20.51,-5.551 -44.65,-4.07 -69.78,4.242 -23.66,7.828 -45.86,20.66 -66.58,33.141 z M 1144.29,1420.7 c 35.38,50.1 81.78,92.69 134.19,123.17 17.38,10.11 40.31,21.68 63.73,21.68 h 0.51 c 5.64,-0.04 11.26,-0.86 16.79,-2.25 28.72,-7.25 54.93,-31.79 67.03,-64.57 15.66,-42.38 8.19,-85.75 -2.38,-133.98 -7.81,-35.63 -16.55,-71.43 -25.68,-107.06 -4.78,0.68 -9.54,1.46 -14.3,2.24 -9.88,1.62 -19.71,3.46 -29.49,5.53 -40.61,8.6 -80.32,21.05 -118.52,37.11 -17.83,7.5 -35.33,15.78 -52.44,24.82 -12.92,6.83 -25.63,14.05 -38.08,21.74 -10.89,6.72 -21.59,13.76 -32.08,21.13 9.21,17.42 19.33,34.32 30.72,50.44 z m 1299.29,317.81 c 22.63,-4.23 41.46,-24.7 43.78,-47.61 2.34,-22.91 -11.97,-46.75 -33.29,-55.45 -3.58,-1.47 -7.4,-2.55 -11.34,-3.52 -0.44,3.17 -1.06,6.24 -1.84,9.22 -0.1,-0.24 -0.16,-0.49 -0.27,-0.72 -1.7,-3.64 -5.31,-5.78 -9.08,-5.78 -1.41,0 -2.85,0.3 -4.22,0.94 -5.01,2.34 -7.16,8.29 -4.83,13.29 2.59,5.55 1.93,12.61 -1.63,17.58 -2.73,3.8 -2.25,8.75 0.62,12.16 -1.67,2.08 -3.33,4.05 -4.93,5.81 -9.17,10.08 -19.79,18.55 -30.6,26.21 10.66,20.09 35.23,32.06 57.63,27.87 z m 46.21,-100.84 c 12.7,15.15 19.52,35.22 17.48,55.26 -3.26,31.9 -28.49,59.34 -60.01,65.24 -30.47,5.7 -62.56,-9.58 -77.84,-36.37 -81.88,52.9 -179.59,107.66 -285.04,115.31 -66.74,4.83 -135.74,9.84 -204.08,4.57 -75.78,-5.86 -141.19,-24.27 -194.64,-54.59 -8.77,11.82 -19.46,22.23 -31.8,30.37 -21.64,14.28 -48.82,22.22 -76.52,22.33 -28.13,0.18 -51.65,-8.56 -66.26,-24.43 -7.13,-7.77 -12.7,-17.7 -17.01,-30.38 -10.55,-31.06 -9.26,-66.19 3.55,-96.41 5.27,-12.42 12.58,-23.95 21.33,-34.29 -29,-31.71 -47.65,-83.76 -52.9,-99.72 -3.86,-11.74 -9.4,-28.25 -14.95,-44.77 -1.2,-3.58 -2.4,-7.15 -3.59,-10.68 -0.7,2.19 -1.4,4.37 -2.21,6.56 -17.26,46.72 -59.38,79.56 -102.43,79.88 -28.76,-0.12 -54.73,-12.93 -74.45,-24.4 -54.87,-31.9 -103.44,-76.48 -140.47,-128.9 -53.34,-75.53 -80.43,-165.13 -106.63,-251.79 L 919.332,843.16 c -8.086,-26.738 -15.469,-57.398 -0.684,-82.781 2.582,-4.438 5.715,-8.359 9.149,-11.918 l -11.434,-21.91 c -6.093,-11.68 -13,-24.922 -15.519,-39.582 -4.399,-25.528 5.148,-53.93 25.527,-75.981 19.973,-21.597 46.844,-34.238 65.309,-41.847 47.9,-19.801 100.21,-29.93 152.33,-29.93 18.95,0 37.86,1.379 56.53,4.07 -7.42,-48.019 -5.97,-97.48 4.98,-144.441 19.1,-81.899 67.34,-157.891 133.1,-210.469 -6.9,-5.59 -13.6,-11.441 -19.92,-17.762 -20.04,-20.039 -31.89,-39.507 -36.22,-59.519 -5.89,-27.1486 3.65,-54.6095 23.75,-68.3283 9.86,-6.7422 22.32,-10.2812 35.78,-10.2812 2.91,0 5.88,0.1601 8.87,0.4883 15.26,1.7226 29.11,7.3515 40.64,12.6328 26.73,12.2187 47.14,26.039 62.39,42.2578 8.83,9.3789 15.83,19.6796 21.03,30.4216 85.37,-42.6208 183.57,-64.6326 285.63,-64.6326 43.92,0 88.56,4.0508 133.15,12.2618 40.41,7.4414 80.31,20.3711 118.87,37.9808 9.2,-28.1097 24.41,-54.2191 44.47,-75.9808 9.35,-10.1485 24.04,-24.03129 43.66,-27.250044 C 2103.43,0.210938 2106.13,0 2108.85,0 c 23.8,0 47.15,16.6484 56.51,41.3984 8.32,22.0313 5.81,49.3008 -6.88,74.8006 -9.88,19.813 -24.07,36.281 -38.3,52.039 48.4,36.403 92.63,80.731 130.22,131.723 45.75,62.059 74.12,134.32 101.55,204.211 3.49,8.859 6.97,17.738 10.49,26.598 19.67,49.5 37.77,99.539 54.48,150.011 18.26,-4.019 37.02,-7.89 56.39,-7.89 2.5,0 5.01,0.058 7.53,0.191 27.28,1.477 51.29,12.219 65.88,29.477 6.16,7.293 10.88,15.972 13.65,25.101 6.82,22.449 0.65,46.289 -15.37,59.309 -11.23,9.152 -25.5,11.91 -36.95,14.133 l -51.53,10 c 41.36,149.554 71.78,312.528 87.22,467.508 7.74,4.55 15.38,9.92 22.88,16.2 57.58,48.2 83.71,132.39 63.56,204.73 -18.33,65.8 -74.54,120.19 -140.39,138.13"
         style="fill:#100f0d;fill-opacity:1;fill-rule:nonzero;stroke:none"
         transform="matrix(0.13333333,0,0,-0.13333333,0,245.85333)"
         sodipodi:nodetypes="ccccccccccccccccsccccccscccccccccccccccccccccccccscccccscccccccccsccccscccccccccsccsccscccccccccccccsccccccsccccccccccccccccccccccccsccccscccsccscccccccccccccccscccccccccccccccccccccccccccscccscccccccccccccccccccccccccscccccccccccccccccccccccccccccccccccccccccsccccccccccccccccccssccccccccccccccccccccccccccccccccccsccccccsccccsscccscccccccscccccccccc" />
      <path
         id="path39"
         d="m 1099.48,407.262 c -4.02,-9.313 -8.99,-19.563 -18.53,-23.012 -8.49,-3.059 -18.22,0.512 -24.87,6.602 -6.65,6.097 -10.84,14.347 -14.88,22.41 -21.56,-21.813 -43.118,-43.621 -64.673,-65.43 -10.699,-10.82 -23.097,-22.391 -38.312,-22.434 l -3.777,127.661 c -10.403,-2.59 -21.196,-5.18 -31.727,-3.2 -10.531,1.981 -20.754,9.891 -21.785,20.563 24.133,20.937 40.5,49.5 48.941,80.308 C 890.57,537.91 852.309,514.219 834.484,476.922 816.926,440.191 821.93,397.16 827.316,356.801 l 46.289,18.57 c 8.032,-71.84 10.555,-140.473 0.719,-212.101 -0.047,-0.36 0.43,-0.571 0.711,-0.34 58.453,46.929 112.93,98.808 162.645,154.902 -0.43,-15.773 5.82,-31.621 16.89,-42.863 34.76,31.703 71.23,66.23 82.24,111.961 6.67,27.679 2.93,57.73 -10.31,82.929 -9.01,-20.871 -18.01,-41.73 -27.02,-62.597"
         style="fill:#ff6600;fill-opacity:1;fill-rule:nonzero;stroke:none"
         transform="matrix(0.13333333,0,0,-0.13333333,0,245.85333)" />
      <path
         id="path40"
         d="m 2028.23,1312.68 c -0.08,0 -0.16,0 -0.24,0 -48.45,0 -93.27,18.45 -126.24,51.95 -34.63,35.21 -53.2,83.6 -52.27,136.29 1.75,99.9 86.5,180.87 189.07,180.87 0.3,0 0.57,0 0.85,0 48.82,-0.21 94.53,-19.4 128.72,-54.03 34.88,-35.34 53.85,-82.62 53.41,-133.13 -0.89,-101.89 -85.8,-181.81 -193.3,-181.95 z m 212.83,179.7 c 0.63,58.89 -19.6,112.21 -56.97,150.14 -36.93,37.48 -89.04,58.26 -146.74,58.5 -0.34,0 -0.69,0 -1.03,0 -119.34,0 -206.27,-86.16 -206.88,-205.24 -0.58,-117.17 82.12,-202.73 196.66,-203.43 0.46,0 0.94,0 1.41,0 116.71,-0.01 212.37,89.45 213.55,200.03"
         style="fill:#231f20;fill-opacity:1;fill-rule:nonzero;stroke:none"
         transform="matrix(0.13333333,0,0,-0.13333333,0,245.85333)" />
      <path
         id="path41"
         d="m 2596.49,1465.75 c 2.1,-3.74 2.2,-8.23 0.27,-11.73 -1.8,-3.22 -5.26,-5.43 -9.25,-5.94 -0.62,-0.08 -1.23,-0.12 -1.86,-0.12 -2.52,0 -5.16,0.64 -7.85,1.9 -1.07,0.51 -1.84,1.49 -2.08,2.65 -1.07,5.25 2.88,9.38 4.78,11.37 2.05,2.16 2.86,3.6 3,5.34 0.08,1.1 0.64,2.1 1.53,2.75 0.9,0.64 2.01,0.87 3.09,0.6 3.88,-0.93 6.94,-4.26 8.37,-6.82 z m -13.56,-32.43 c -0.11,0 -0.22,0 -0.33,0 -6.38,0.43 -12.36,3.81 -16,9.06 -1.58,2.27 -1.01,5.38 1.25,6.96 2.27,1.57 5.38,1.02 6.95,-1.25 1.91,-2.73 5.14,-4.57 8.46,-4.79 2.76,-0.18 4.85,-2.56 4.66,-5.32 -0.18,-2.64 -2.37,-4.66 -4.99,-4.66 z m -30.12,77.92 c -30.48,-1.27 -48.9,-18.31 -51.17,-49.01 -2.18,-29.3 21.77,-53.25 51.46,-52.8 31.47,0.47 47.32,18.47 51.49,45.82 1.1,30.56 -23.55,57.16 -51.78,55.99"
         style="fill:#231f20;fill-opacity:1;fill-rule:nonzero;stroke:none"
         transform="matrix(0.13333333,0,0,-0.13333333,0,245.85333)" />
      <path
         id="path42"
         d="m 2146.27,1482.02 c -0.59,-0.07 -1.19,-0.11 -1.8,-0.11 -2.56,0 -5.25,0.64 -7.92,1.9 -1.06,0.51 -1.83,1.48 -2.07,2.65 -1.07,5.24 2.88,9.38 4.78,11.36 2.05,2.16 2.86,3.61 3,5.35 0.08,1.09 0.64,2.1 1.54,2.74 0.9,0.64 2.03,0.87 3.08,0.61 3.88,-0.95 6.94,-4.27 8.37,-6.83 2.1,-3.76 2.2,-8.25 0.27,-11.73 -1.82,-3.23 -5.28,-5.44 -9.25,-5.94 z m -4.57,-14.76 c -0.12,0 -0.23,0 -0.34,0.01 -6.38,0.42 -12.36,3.81 -16.01,9.06 -1.57,2.26 -1,5.38 1.26,6.96 2.27,1.57 5.38,1.01 6.96,-1.26 1.9,-2.73 5.13,-4.57 8.45,-4.78 2.76,-0.19 4.85,-2.57 4.66,-5.32 -0.18,-2.65 -2.37,-4.67 -4.98,-4.67 z m -30.02,90.77 c -36.74,-1.53 -58.95,-22.08 -61.69,-59.08 -2.62,-35.32 26.24,-64.19 62.03,-63.65 37.94,0.57 57.05,22.27 62.07,55.23 1.33,36.85 -28.39,68.91 -62.41,67.5"
         style="fill:#231f20;fill-opacity:1;fill-rule:nonzero;stroke:none"
         transform="matrix(0.13333333,0,0,-0.13333333,0,245.85333)" />
      <path
         id="path43"
         d="m 2155.25,1499.69 c -1.43,2.56 -4.49,5.88 -8.37,6.83 -1.05,0.26 -2.18,0.03 -3.08,-0.61 -0.9,-0.64 -1.46,-1.65 -1.54,-2.74 -0.14,-1.74 -0.95,-3.19 -3,-5.35 -1.9,-1.98 -5.85,-6.12 -4.78,-11.36 0.24,-1.17 1.01,-2.14 2.07,-2.65 2.67,-1.26 5.36,-1.9 7.92,-1.9 0.61,0 1.21,0.04 1.8,0.11 3.97,0.5 7.43,2.71 9.25,5.94 1.93,3.48 1.83,7.97 -0.27,11.73"
         style="fill:#ffffff;fill-opacity:1;fill-rule:nonzero;stroke:none"
         transform="matrix(0.13333333,0,0,-0.13333333,0,245.85333)" />
      <path
         id="path44"
         d="m 2142.02,1477.25 c -3.32,0.21 -6.55,2.05 -8.45,4.78 -1.58,2.27 -4.69,2.83 -6.96,1.26 -2.26,-1.58 -2.83,-4.7 -1.26,-6.96 3.65,-5.25 9.63,-8.64 16.01,-9.06 0.11,-0.01 0.22,-0.01 0.34,-0.01 2.61,0 4.8,2.02 4.98,4.67 0.19,2.75 -1.9,5.13 -4.66,5.32"
         style="fill:#ffffff;fill-opacity:1;fill-rule:nonzero;stroke:none"
         transform="matrix(0.13333333,0,0,-0.13333333,0,245.85333)" />
      <path
         id="path45"
         d="m 2585.03,1471.97 c -0.89,-0.65 -1.45,-1.65 -1.53,-2.75 -0.14,-1.74 -0.95,-3.18 -3,-5.34 -1.9,-1.99 -5.85,-6.12 -4.78,-11.37 0.24,-1.16 1.01,-2.14 2.08,-2.65 2.69,-1.26 5.33,-1.9 7.85,-1.9 0.63,0 1.24,0.04 1.86,0.12 3.99,0.51 7.45,2.72 9.25,5.94 1.93,3.5 1.83,7.99 -0.27,11.73 -1.43,2.56 -4.49,5.89 -8.37,6.82 -1.08,0.27 -2.19,0.04 -3.09,-0.6"
         style="fill:#ffffff;fill-opacity:1;fill-rule:nonzero;stroke:none"
         transform="matrix(0.13333333,0,0,-0.13333333,0,245.85333)" />
      <path
         id="path46"
         d="m 2583.26,1443.3 c -3.32,0.22 -6.55,2.06 -8.46,4.79 -1.57,2.27 -4.68,2.82 -6.95,1.25 -2.26,-1.58 -2.83,-4.69 -1.25,-6.96 3.64,-5.25 9.62,-8.63 16,-9.06 0.11,0 0.22,0 0.33,0 2.62,0 4.81,2.02 4.99,4.66 0.19,2.76 -1.9,5.14 -4.66,5.32"
         style="fill:#ffffff;fill-opacity:1;fill-rule:nonzero;stroke:none"
         transform="matrix(0.13333333,0,0,-0.13333333,0,245.85333)" />
      <path
         id="path47"
         d="m 2437.11,1678.11 c -3.21,4.49 -9.45,5.53 -13.96,2.3 -0.69,-0.49 -1.14,-1.17 -1.67,-1.79 -2.87,-3.41 -3.35,-8.36 -0.62,-12.16 3.56,-4.97 4.22,-12.03 1.63,-17.58 -2.33,-5 -0.18,-10.95 4.83,-13.29 1.37,-0.64 2.81,-0.94 4.22,-0.94 3.77,0 7.38,2.14 9.08,5.78 0.11,0.23 0.17,0.48 0.27,0.72 5.26,11.94 3.83,26.35 -3.78,36.96"
         style="fill:#100f0d;fill-opacity:1;fill-rule:nonzero;stroke:none"
         transform="matrix(0.13333333,0,0,-0.13333333,0,245.85333)" />
      <path
         id="path48"
         d="m 3413.01,1057.13 c 4.17,0 7.72,-1.48 10.66,-4.4 2.92,-2.94 4.4,-6.49 4.4,-10.66 V 673.102 c 0,-4.192 -1.48,-7.743 -4.4,-10.661 -2.94,-2.941 -6.49,-4.402 -10.66,-4.402 h -380.26 c -4.2,0 -7.74,1.461 -10.66,4.402 -2.94,2.918 -4.39,6.469 -4.39,10.661 v 368.968 c 0,4.17 1.45,7.72 4.39,10.66 2.92,2.92 6.46,4.4 10.66,4.4 z m -475.63,140.55 c -25.94,-15.9 -46.65,-36.82 -62.12,-62.75 -15.49,-25.94 -23.22,-54.8 -23.22,-86.59 V 666.832 c 0,-31.812 7.73,-60.672 23.22,-86.594 15.47,-25.949 36.18,-46.867 62.12,-62.738 25.92,-15.91 55.22,-23.852 87.84,-23.852 h 402.85 V 205.012 h 164.39 V 1221.52 h -567.24 c -32.62,0 -61.92,-7.96 -87.84,-23.84"
         style="fill:#202b4f;fill-opacity:1;fill-rule:nonzero;stroke:none"
         transform="matrix(0.13333333,0,0,-0.13333333,0,245.85333)"
         sodipodi:nodetypes="scsscsscsssssccssccsccccsc" />
      <path
         id="path49"
         d="m 4277.65,673.102 c 0,-4.192 -1.48,-7.743 -4.4,-10.661 -2.94,-2.941 -6.49,-4.402 -10.66,-4.402 h -380.26 c -4.19,0 -7.74,1.461 -10.66,4.402 -2.94,2.918 -4.39,6.469 -4.39,10.661 v 548.418 h -164.4 V 666.832 c 0,-31.812 7.73,-60.672 23.21,-86.594 15.47,-25.949 36.4,-46.867 62.76,-62.738 26.35,-15.91 55.41,-23.852 87.21,-23.852 h 392.8 c 32.63,0 61.9,7.942 87.85,23.852 25.92,15.871 46.63,36.789 62.12,62.738 15.47,25.922 23.21,54.782 23.21,86.594 V 1221.52 H 4277.65 V 673.102"
         style="fill:#202b4f;fill-opacity:1;fill-rule:nonzero;stroke:none"
         transform="matrix(0.13333333,0,0,-0.13333333,0,245.85333)"
         sodipodi:nodetypes="ccsscsccsccssccsccc" />
      <path
         id="path50"
         d="m 4573.8,493.648 h 164.4 V 1221.52 H 4573.8 V 493.648"
         style="fill:#202b4f;fill-opacity:1;fill-rule:nonzero;stroke:none"
         transform="matrix(0.13333333,0,0,-0.13333333,0,245.85333)" />
      <path
         id="path51"
         d="m 4573.8,1294.3 h 164.4 v 165.66 H 4573.8 V 1294.3"
         style="fill:#202b4f;fill-opacity:1;fill-rule:nonzero;stroke:none"
         transform="matrix(0.13333333,0,0,-0.13333333,0,245.85333)" />
      <path
         id="path52"
         d="m 5022.43,662.441 c -2.94,2.918 -4.39,6.469 -4.39,10.661 v 368.968 c 0,4.17 1.45,7.72 4.39,10.66 2.92,2.92 6.48,4.4 10.67,4.4 h 558.45 v 164.39 h -564.72 c -31.81,0 -60.68,-7.96 -86.6,-23.84 -25.94,-15.9 -46.86,-36.82 -62.75,-62.75 -15.9,-25.94 -23.84,-54.8 -23.84,-86.59 V 666.832 c 0,-31.812 7.94,-60.672 23.84,-86.594 15.89,-25.949 36.81,-46.867 62.75,-62.738 25.92,-15.91 54.79,-23.852 86.6,-23.852 h 565.97 v 164.391 h -559.7 c -4.19,0 -7.75,1.461 -10.67,4.402"
         style="fill:#202b4f;fill-opacity:1;fill-rule:nonzero;stroke:none"
         transform="matrix(0.13333333,0,0,-0.13333333,0,245.85333)" />
      <path
         id="path53"
         d="m 5692.49,782.289 h 513.27 V 946.688 H 5692.49 V 782.289"
         style="fill:#202b4f;fill-opacity:1;fill-rule:nonzero;stroke:none"
         transform="matrix(0.13333333,0,0,-0.13333333,0,245.85333)" />
      <path
         id="path54"
         d="m 6910.57,673.102 c 0,-4.192 -1.48,-7.743 -4.4,-10.661 -2.94,-2.941 -6.49,-4.402 -10.66,-4.402 h -380.26 c -4.19,0 -7.74,1.461 -10.66,4.402 -2.94,2.918 -4.39,6.469 -4.39,10.661 v 368.968 c 0,4.17 1.45,7.72 4.39,10.66 2.92,2.92 6.47,4.4 10.66,4.4 h 380.26 c 4.17,0 7.72,-1.48 10.66,-4.4 2.92,-2.94 4.4,-6.49 4.4,-10.66 z m 79.06,524.578 c -25.95,15.88 -54.81,23.84 -86.59,23.84 h -394.06 c -30.96,0 -59.6,-7.96 -85.96,-23.84 -26.36,-15.9 -47.49,-36.82 -63.38,-62.75 -15.9,-25.94 -23.84,-54.8 -23.84,-86.59 V 666.832 c 0,-31.812 7.94,-60.672 23.84,-86.594 15.89,-25.949 37.02,-46.867 63.38,-62.738 26.36,-15.91 55,-23.852 85.96,-23.852 h 401.59 V 386.98 c 0,-4.179 -1.48,-7.73 -4.4,-10.671 -2.94,-2.93 -6.49,-4.387 -10.66,-4.387 H 6457.53 V 206.27 h 445.51 c 31.78,0 60.86,7.742 87.21,23.21 26.36,15.5 47.06,36.2 62.12,62.122 15.06,25.937 22.59,55.218 22.59,87.847 v 668.891 c 0,31.79 -7.74,60.65 -23.21,86.59 -15.49,25.93 -36.2,46.85 -62.12,62.75"
         style="fill:#202b4f;fill-opacity:1;fill-rule:nonzero;stroke:none"
         transform="matrix(0.13333333,0,0,-0.13333333,0,245.85333)" />
      <path
         id="path55"
         d="m 7752.65,673.102 c 0,-4.192 -1.48,-7.743 -4.4,-10.661 -2.94,-2.941 -6.49,-4.402 -10.66,-4.402 h -380.26 c -4.19,0 -7.74,1.461 -10.66,4.402 -2.94,2.918 -4.39,6.469 -4.39,10.661 v 368.968 c 0,4.17 1.45,7.72 4.39,10.66 2.92,2.92 6.47,4.4 10.66,4.4 h 380.26 c 4.17,0 7.72,-1.48 10.66,-4.4 2.92,-2.94 4.4,-6.49 4.4,-10.66 z m 141.18,461.828 c -15.49,25.93 -36.4,46.85 -62.75,62.75 -26.35,15.88 -55.44,23.84 -87.22,23.84 h -392.8 c -31.8,0 -60.67,-7.96 -86.59,-23.84 -25.94,-15.9 -46.86,-36.82 -62.75,-62.75 -15.9,-25.94 -23.84,-54.8 -23.84,-86.59 V 666.832 c 0,-31.812 7.94,-60.672 23.84,-86.594 15.89,-25.949 36.81,-46.867 62.75,-62.738 25.92,-15.91 54.79,-23.852 86.59,-23.852 h 392.8 c 32.63,0 61.9,7.942 87.85,23.852 25.92,15.871 46.63,36.789 62.12,62.738 15.47,25.922 23.21,54.782 23.21,86.594 v 381.508 c 0,31.79 -7.74,60.65 -23.21,86.59"
         style="fill:#202b4f;fill-opacity:1;fill-rule:nonzero;stroke:none"
         transform="matrix(0.13333333,0,0,-0.13333333,0,245.85333)" />
    </g>
  </g>
</svg>
